<svg width="375" height="812" fill="none" xmlns="http://www.w3.org/2000/svg"><g clip-path="url(#clip0)"><path fill-rule="evenodd" clip-rule="evenodd" d="M186.627 1090.34L-392 818.671 186.627 547l578.627 271.671-578.627 271.669zm-9.199-5.17l.519.25-386.254-266.749 386.254-266.746-.519.244-474.275 266.502 474.275 266.499zm-10.144-4.76L-390.19 818.671l557.474-261.739-465.799 261.739 465.799 261.739zm-304.939-261.739l316.11-266.028-385.214 266.028L178.455 1084.7l-316.11-266.029zm318.032 266.409L-136.19 818.671l316.568-266.412-245.892 266.412 245.891 266.409zM-64.119 818.671l246.323 266.879L10.368 818.671l171.836-266.879-246.323 266.879zm248.122 267.599L96.745 818.671l87.258-267.596L11.705 818.671l172.298 267.599zM98.04 818.671l87.307 267.749V550.926L98.04 818.671zm88.587 268.059l96.297-268.059-96.297-268.057v536.116zm97.595-268.059l-96.137 267.609 184.88-267.609-184.88-267.613 96.137 267.613zm-93.75 266.109l250.756-266.109-250.756-266.104 183.839 266.104-183.839 266.109zm252.156-266.109L192.304 1084.32l314.923-265.649-314.923-265.646 250.324 265.646zM194.393 1083.79l376.573-265.119-376.573-265.12 314.299 265.12-314.299 265.119zm378.112-265.119l-376.39 264.989 440.83-264.989-440.83-264.991 376.39 264.991zm-373.733-264.37l501.895 264.37-501.895 264.369L638.57 818.671l-439.798-264.37zm2.706 528.219l561.965-263.849-561.965-263.848 500.904 263.848-500.904 263.849z" fill="url(#paint0_linear)"/><g opacity=".36"><path d="M-244 582.14l134.303-100.007 103.926 23.696-13.59-79.122 9.992-108.842 30.112-80.728-33.31 12.852-37.173 44.983-7.594-9.639-25.582 60.646 7.195-51.007 27.98-41.77 23.183-14.459-61.556-6.024-86.337 47.392 18.386-42.974 59.557-36.147 46.767-6.828-50.764-32.934-53.561-10.443-57.559 6.427 76.345-46.992 75.946 6.828 35.974 25.303-3.198-10.041-6.795-22.09-22.384-22.491 29.18 6.426 19.185 18.074 12.791 17.27 11.192 18.475-9.193-51.81L-10.968 56l37.973 26.106 15.589 39.36 2.798 22.893 39.571-38.958 61.156-14.86 55.161 24.499-69.95 9.238-46.367 42.974-47.565 63.458 34.375-34.942 23.583-22.893 61.156-13.655 62.755 36.548 24.382 42.975-66.752-27.713-63.954-4.819-27.98 10.844 19.986 26.106 19.586 53.819-15.989 48.999-7.994-53.819-34.775-42.171-20.385-9.639-24.782 89.162v108.441l43.169 85.95L312 580.131 50.188 597l-219.442-3.213L-244 582.14z" fill="#fff" fill-opacity=".11"/><path d="M-109.697 482.133L-244 582.14l74.746 11.647m59.557-111.654l-59.557 111.654m59.557-111.654L50.188 597m-159.885-114.867l138.3 50.204m-138.3-50.204l103.926 23.696m-163.483 87.958L50.188 597m0 0l-21.584-64.663M50.188 597L312 580.131M28.604 532.337L312 580.131M28.604 532.337l35.175-8.434m-35.175 8.434l-34.375-26.508m34.375 26.508l-27.18-81.933m-7.195 55.425l-13.59-79.121M312 580.131L63.779 523.903m0 0l-43.17-85.95m-39.97-11.245l20.784 23.696m-20.785-23.696l9.993-108.843M1.423 450.404l19.187-12.451M1.423 450.404V329.512M20.61 437.953V329.512m0 0H1.423m19.187 0l24.782-89.162M1.423 329.512l-10.792-11.647m10.792 11.647l35.975-98.802M-9.37 317.865l30.112-80.728m16.655-6.427l23.583-7.631m-23.583 7.631l7.994 9.64m-7.994-9.64l-1.6-16.466m1.6 16.466l34.375-34.942M37.398 230.71l47.565-63.458M37.398 230.71l-16.655 6.427m24.649 3.213l20.385 9.639m0 0l34.775 42.171m-34.775-42.171l13.19-15.262m21.585 57.433l7.994 53.819m-7.994-53.819l12.391-6.827m-4.397 60.646l15.989-48.999m-15.989 48.999l4.397-60.646m11.592 11.647l-19.586-53.819m19.586 53.819l-11.592-11.647m-7.994-42.172l-19.986-26.106m19.986 26.106l-25.981-8.434m5.995-17.672l-23.982 6.024m23.982-6.024l27.98-10.844m-51.962 16.868l17.987 11.648m0 0l33.975 50.606m-125.51-35.344l-37.173 44.983-7.594-9.639m44.768-35.344l-44.768 35.344m44.768-35.344l-11.992-11.246m11.992 11.246l-35.175 3.213m35.175-3.213l33.309-12.852m-78.077 48.196l-25.582 60.646 7.195-51.007m18.387-9.639l-18.387 9.639m0 0l27.98-41.77m23.183-14.459l-23.183 14.459m23.183-14.459L35.8 214.244m-60.357 24.499l-61.556-6.024M35.8 214.244l49.164-46.992M35.8 214.244l9.593-69.885M35.8 214.244l17.187-41.369M35.8 214.244l-10.393-7.31m59.557-39.682l-31.977 5.623m31.977-5.623l-5.995-32.13m5.995 32.13l46.367-42.974m-78.344 48.597l-7.594-28.516m7.594 28.516l25.982-37.753m-33.576 9.237l39.571-38.958m-39.571 38.958l-2.798-22.893m42.37-16.065l-5.996 29.721m5.995-29.721l61.156-14.86m-67.151 44.581l49.964-29.721m-49.964 29.721l52.362-10.844m-2.398-18.877l17.187-14.86m-17.187 14.86l2.398 18.877m-2.398-18.877l72.348 9.639m-55.161-24.5l55.161 24.5m-69.95 9.238l69.95-9.238m-88.337 91.171l-41.17-10.443m41.17 10.443l-2.398-20.885m2.398 20.885l63.954 4.819M71.773 195.768l38.378-10.336m-38.378 10.336l23.583-22.893 61.156-13.655m-45.967 26.106l68.75 6.603m-68.75-6.603l-.394.106m109.116 10.336l24.382 42.975m-24.382-42.975l-39.972-3.839m39.972 3.839l-62.755-36.548m87.137 79.523l-64.354-46.814m64.354 46.814l-66.752-27.713m2.398-19.101l-2.398 19.101m-66.746-25.598l46.361-26.212M11.816 197.375l-110.32-36.147m110.32 36.147l-33.176-55.024m33.176 55.024l15.189-40.163m-15.189 40.163l1.998-16.467m-1.998 16.467l-69.15-80.327m69.15 80.327l-63.954-49.401m63.954 49.401l-59.557-3.213m59.557 3.213l-89.136 16.869m89.136-16.869l13.59 9.559m-123.91-45.706l46.366-13.254m-46.367 13.254l-53.561-10.443m53.561 10.443l-25.182-28.918m25.182 28.918l50.764 32.934m-4.397-46.188l-71.549-15.664m71.549 15.664l-5.196-30.926m-66.353 15.262l-28.379 18.475m28.379-18.475l-9.593-22.09m9.593 22.09l-85.938 24.902m57.559-6.427l-57.559 6.427m0 0l76.345-46.992m0 0l75.946 6.828m0 0l35.974 25.303m0 0l-3.198-10.041m3.198 10.041l35.175 38.557m-38.373-48.598l-6.795-22.09m6.795 22.09l20.785 7.23m-27.58-29.32l-22.384-22.491m22.384 22.491l9.993-4.819m-32.377-17.672l29.18 6.426m-29.18-6.426l32.377 17.672m-3.198-11.246l19.186 18.074m-19.186-18.074l3.198 11.246m15.988 6.828l12.791 17.27m-12.79-17.27l-15.99-6.828m28.78 24.098l11.192 18.475M7.42 129.499L-3.773 139.54m22.384 8.434l-2.798 16.467m2.798-16.467l-9.193-51.81m9.193 51.81l8.394 9.238m-11.192 7.229L-3.773 139.54m19.586 24.901l-1.998 16.467M-3.774 139.54l-17.587-34.139m30.778-9.238L-10.968 56M9.418 96.163l11.192 2.008M-10.968 56l37.973 26.106M-10.968 56L20.61 98.171m6.395-16.065l15.589 39.36m-15.589-39.36L20.61 98.172m21.984 23.294l-15.589 35.746m0 0l-6.395-59.04m6.395 59.04l-1.599 49.722m-73.147-12.772l-46.766 6.828m0 0l-59.558 36.147m59.558-36.147l17.187 13.254m-76.745 22.893l-18.386 42.974m18.386-42.974l8.794 6.024m-27.18 36.95l27.18-20.081m-27.18 20.081l27.18-36.95m-27.18 36.95l86.337-47.392m-59.157 27.311v-16.869m0 16.869l67.951-45.786m-67.951 28.917l67.951-28.917m0 0l-8.794 18.475" stroke="#fff" stroke-opacity=".25"/></g><g opacity=".36"><path d="M697.023-26.767L586.876 27.257l-19.394 75.662-46.98-35.358-74.242-29.946-62.672-7.418 19.534-17.401 41.757-9.157-3.733-8.178L489.22-.897l-35.634-12.397-36.583 4.243-17.187 10.265 16.705-42.132 59.803-40.389-34.153-2.413-43.503 26.704-20.12 28.19-4.439-44.113 11.149-38.402 23.475-35.356-56.193 34.011-21.004 51.778 4.425 31.918-5.468-5.447-12.111-11.827-7.148-22.12-5.593 21.167 5.342 18.557 6.962 14.12 8.283 13.482-30.665-23.346-19.328-26.737 4.278 33.49L300.925 5.69l13.974 9.492-38.637 12.738-30.174 34.876-2.528 44.152 29.459-42.49 43.529-15.82 57.273-9.742-34.279 10.697-22.814 7.7-29.389 35.28 2.774 53.137 19.82 30.284 4.32-52.783 18.293-43.29 16.44-14.602 10.307 21.769 28.49 30.79 37.273 5.993-32.375-23.236-15.814-36.787.554-16.514L443.8 61.051l70.632 36.323 41.514 56.921-46.561 180.591 98.727-164.963L679.56 25.844l17.463-52.61z" fill="#fff" fill-opacity=".11"/><path d="M586.876 27.256l110.147-54.022-17.464 52.61m-92.683 1.412l92.683-1.412m-92.683 1.412l21.236 142.667M586.876 27.256l-13.648 106.942m13.648-106.942l-19.394 75.662m112.077-77.074l-71.447 144.079m0 0l-34.884-35.725m34.884 35.725l-98.727 164.963m63.843-200.688l-63.843 200.688m63.843-200.688l-17.282 20.097m17.282-20.097l-5.746-31.28m5.746 31.28l-44.257-45.156m38.511 13.876l-46.98-35.358m-11.117 267.326l46.561-180.591m0 0l-41.514-56.92m6.07-29.815l8.469 21.482m-8.469-21.482L446.26 37.614m82.711 51.428l-14.539 8.332m14.539-8.332L450.23 48.548m64.202 48.826L443.8 61.051m0 0l6.43-12.503m-6.43 12.503l-66.379-13.716m72.809 1.213l-3.97-10.934m3.97 10.934l-76.409-9.65m72.439-1.284l-62.672-7.418m-9.767 8.701L360.948 51.71m12.873-12.812l3.6 8.438m-3.6-8.438l-10.189-6.557m10.189 6.557l-34.279 10.697m34.279-10.697l-57.273 9.742m57.273-9.742l9.767-8.7m-6.167 17.138l-.554 16.514m0 0l15.814 36.787M376.867 63.85l-14.361 3.483m30.175 33.304l32.375 23.236m-32.375-23.236l-8.6 5.788m40.975 17.448l-37.273-5.993m37.273 5.993l-40.975-17.448m3.702 11.455l-28.49-30.79m28.49 30.79l-3.702-11.455m-24.788-19.336L348.986 65.32m10.307 21.769l3.213-19.757m-13.52-2.012l11.962-13.61m-11.962 13.61l-16.44 14.601m28.402-28.212l1.558 15.623m0 0l21.575 39.092m19.041-93.63l41.757-9.156-3.733-8.178m-38.024 17.335L441.146-4.54m-38.024 17.335l-3.306-11.581m3.306 11.58L417.003-9.05m-13.881 21.846l-19.534 17.401M441.146-4.54L489.22-.897l-35.634-12.397m-12.44 8.754l12.44-8.754m0 0L417.003-9.05M399.816 1.214l17.187-10.265M399.816 1.214L363.632 32.34m36.184-31.126l16.705-42.132M363.632 32.34l-47.084 16.298m47.084-16.298l-48.733-17.157m48.733 17.157l-32.705-2.656m32.705 2.656l-1.279-9.221m-45.805 25.52l14.379-18.955m-14.379 18.954l-18.918-14.67m18.918 14.67L273.019 64.46m57.908-34.775l-16.028-14.501m16.028 14.5L297.63 33.97m17.269-18.786L276.262 27.92m38.637-12.738L300.925 5.69m-24.663 22.23l21.368 6.048m-21.368-6.048l-30.174 34.876m51.542-28.828l-36.103 22.605m36.103-22.605l-24.611 30.49m-11.492-7.885l-15.439 6.223m15.439-6.223l11.492 7.885m-11.492-7.885l-17.967 50.375m2.528-44.152l-2.528 44.152m29.459-42.49l-29.459 42.49m88.986-27.028l6.996-30.327m-6.996 30.327l-12.799-8.558m12.799 8.558l-18.293 43.291m25.289-73.618l-19.594 21.548m19.594-21.548l-22.814 7.7-29.389 35.28m32.408-21.211l-18.739 47.014m18.739-47.014l.201-.221m-29.835 74.569l19.82 30.284m-19.82-30.284l10.895-27.334m-10.895 27.334l-2.774-53.138m22.594 83.422l-8.925-57.618m8.925 57.618l4.32-52.783m-13.245-4.835l13.245 4.835m5.695-52.07l-32.609 21.431m73.343-81.512l13.427-84m-13.427 84l-24.721-40.05m24.721 40.05l-31.25-3.555m31.25 3.555l-11.396-4.214m11.396 4.214l-29.146-71.97m29.146 71.97l-10.744-58.224m10.744 58.224l17.866-39.888M360.682 11.06l40.859-52.437M360.682 11.06l1.671 12.058m11.756-96.058l-24.171 25.776m24.171-25.776l11.149-38.402M374.109-72.94l-10.396-26.096m10.396 26.096l4.439 44.112m-28.61-18.336l13.775-51.872m-13.775 51.872l-18.402-13.745m32.177-38.127l21.545-12.306m-21.545 12.306l-11.173-13.651m11.173 13.65l45.02-47.661m-23.475 35.356l23.475-35.356m0 0l-56.193 34.011m0 0l-21.004 51.778m0 0l4.425 31.918m0 0l-5.468-5.447m5.468 5.447l13.325 35.837m-18.793-41.284l-12.111-11.827m12.111 11.827l-2.257 15.967m-9.854-27.794l-7.148-22.12m7.148 22.12l-6.488 4.898m-.66-27.018l-5.593 21.167m5.593-21.167l.66 27.018m-6.253-5.851l5.342 18.557m-5.342-18.557l6.253 5.85m-.911 12.707l6.962 14.12m-6.962-14.12l.911-12.706m6.051 26.826l8.283 13.482m-8.283-13.482l10.291-3.93m-2.008 17.412l11.663 3.692m-11.663-3.692l-30.665-23.346m30.665 23.346l3.204 8.564m8.459-4.872l-9.655-21.104m9.655 21.104l11.395 4.213m-21.05-25.317l-16.342-22.896m-16.331 16.962L276.235-51.14m19.328 26.737l-2.443 7.966M276.235-51.14l4.278 33.49m-4.278-33.49l16.885 34.703m-12.607-1.213l20.412 23.34m-20.412-23.34l12.607 1.213m7.805 22.13l28.507 1.814m0 0L293.12-16.438m36.312 23.944l32.921 15.613m16.195-51.946l20.12-28.189m0 0l43.503-26.704m-43.503 26.704l2.873 15.64m40.63-42.344l34.153 2.413m-34.153-2.413l.977 7.749m33.176-5.336L454.135-70.32m22.189-10.986l-33.176 5.336m33.176-5.336l-59.803 40.389m37.614-29.403l-10.987-5.65m10.987 5.65l-52.594 28.945m41.607-34.595l-41.607 34.595m0 0l14.98.458" stroke="#fff" stroke-opacity=".25"/></g></g><defs><linearGradient id="paint0_linear" x1="187" y1="570" x2="160.065" y2="812.639" gradientUnits="userSpaceOnUse"><stop stop-color="#2B2B2B"/><stop offset="1" stop-color="#2B2B2B" stop-opacity="0"/></linearGradient><clipPath id="clip0"><path fill="#fff" d="M0 0h375v812H0z"/></clipPath></defs></svg>