<?xml version="1.0" standalone="no"?>
<!DOCTYPE svg PUBLIC "-//W3C//DTD SVG 20010904//EN"
 "http://www.w3.org/TR/2001/REC-SVG-20010904/DTD/svg10.dtd">
<svg version="1.0" xmlns="http://www.w3.org/2000/svg"
 width="1446.000000pt" height="1446.000000pt" viewBox="0 0 1446.000000 1446.000000"
 preserveAspectRatio="xMidYMid meet">
<metadata>
Created by potrace 1.11, written by Peter Selinger 2001-2013
</metadata>
<g transform="translate(0.000000,1446.000000) scale(0.100000,-0.100000)"
fill="#000000" stroke="none">
<path d="M2730 14451 c0 -4 9 -30 20 -57 10 -27 38 -98 60 -159 23 -60 45
-119 50 -130 5 -11 66 -171 135 -355 70 -184 137 -362 150 -395 13 -33 42
-109 65 -170 24 -60 46 -121 51 -135 4 -14 26 -72 48 -130 l41 -105 0 -5863 0
-5863 56 -67 c31 -37 72 -87 92 -111 52 -63 96 -115 102 -121 3 -3 24 -27 45
-55 22 -27 42 -52 45 -55 7 -7 102 -120 120 -144 8 -10 29 -35 46 -55 17 -20
91 -108 164 -196 72 -88 153 -184 179 -214 25 -30 49 -58 52 -63 4 -6 19 -8
35 -5 16 4 52 9 79 12 28 3 61 8 75 10 14 2 79 12 145 21 66 9 129 18 140 20
11 1 70 10 130 19 61 8 121 17 135 20 14 2 45 6 70 10 25 4 59 9 75 11 40 7
204 32 285 44 36 5 74 11 85 14 11 2 45 7 75 11 30 4 62 9 71 10 19 4 35 6
214 34 221 35 449 71 475 76 14 3 41 8 60 11 65 10 85 13 265 44 99 17 196 33
215 36 19 3 46 7 60 10 14 2 52 9 85 14 33 5 71 12 85 14 14 3 93 16 175 31
83 14 170 30 195 35 25 5 61 12 80 14 19 3 60 10 90 16 56 11 77 15 140 25 31
5 221 41 275 51 11 2 34 6 50 9 17 3 53 10 80 15 28 6 59 12 70 14 97 19 518
216 735 344 227 135 499 333 675 493 17 15 44 39 60 54 98 88 302 296 390 399
113 132 140 166 232 290 46 61 86 116 91 121 4 6 39 57 78 115 322 483 564
982 762 1575 66 196 149 482 167 575 2 8 8 35 15 60 7 25 14 54 16 64 2 11 12
63 23 115 11 53 22 110 25 126 3 17 10 52 15 80 5 27 7 53 5 57 -2 3 0 9 6 13
6 4 8 10 6 13 -2 4 -1 28 4 52 5 25 11 70 15 100 3 30 9 68 11 85 3 16 7 52 9
80 3 27 8 73 11 100 4 28 7 863 8 1856 l1 1806 -50 -2 c-46 -2 -219 -12 -375
-20 -73 -4 -265 -14 -385 -20 -239 -12 -308 -16 -385 -20 -47 -2 -134 -7 -195
-10 -60 -3 -144 -7 -185 -10 -41 -3 -127 -7 -190 -10 -118 -6 -210 -11 -385
-20 -55 -3 -138 -8 -185 -10 -123 -6 -304 -15 -385 -20 -38 -2 -124 -7 -190
-10 -66 -3 -151 -8 -190 -10 -38 -2 -126 -7 -195 -10 -69 -4 -154 -8 -190 -10
-36 -2 -128 -7 -205 -10 -77 -4 -165 -9 -195 -11 -30 -1 -111 -6 -180 -9 -182
-9 -252 -14 -256 -18 -3 -3 -6 -1972 -4 -2965 l0 -153 103 6 c56 3 131 8 167
10 36 2 110 7 165 10 55 3 134 8 175 10 41 3 116 7 165 10 50 3 126 7 170 10
44 3 123 7 175 10 52 3 133 7 180 10 166 10 495 27 583 29 l69 3 -7 -61 c-20
-184 -56 -357 -111 -534 -95 -305 -219 -568 -393 -831 -31 -46 -60 -91 -66
-100 -5 -8 -14 -21 -20 -28 -20 -24 -30 -39 -60 -78 -16 -22 -34 -45 -40 -52
-5 -6 -26 -30 -45 -54 -76 -93 -241 -262 -319 -326 -18 -15 -45 -38 -60 -51
-92 -80 -315 -209 -391 -226 -14 -3 -65 -15 -115 -26 -49 -11 -103 -23 -120
-25 -16 -3 -41 -7 -55 -10 -14 -3 -47 -7 -75 -10 -27 -4 -57 -8 -65 -10 -14
-4 -95 -14 -150 -20 -37 -4 -142 -16 -170 -20 -14 -2 -54 -7 -90 -10 -36 -3
-85 -8 -110 -10 -25 -3 -72 -7 -105 -10 -33 -3 -76 -8 -95 -10 -19 -2 -75 -7
-125 -10 -49 -3 -106 -8 -125 -10 -19 -2 -75 -7 -125 -10 -49 -4 -112 -8 -140
-10 -27 -2 -99 -7 -160 -10 -60 -4 -124 -8 -142 -10 -17 -1 -34 3 -36 9 -2 6
-2 200 -1 431 1 231 5 1084 8 1895 4 811 9 2020 12 2685 3 666 7 1565 8 1998
2 433 6 790 9 793 3 3 74 7 159 9 84 3 239 7 343 10 105 2 280 7 390 10 110 3
277 8 370 10 94 3 258 7 365 10 107 3 269 7 360 10 91 3 257 7 370 10 113 3
275 8 360 10 85 2 243 7 350 10 107 3 281 7 385 10 105 3 267 7 360 10 94 3
260 7 370 10 110 3 270 7 355 10 288 8 735 20 1115 30 131 4 242 8 246 11 4 2
7 690 7 1529 l0 1525 -4474 0 c-2517 0 -4474 -4 -4474 -9z"/>
</g>
</svg>
